<svg width="125" height="108" viewBox="0 0 125 108" fill="none" xmlns="http://www.w3.org/2000/svg">
<path d="M5.20834 94.5V40.5H15.625V49.5H26.0417V13.5H36.4583V22.5H46.875V13.5H57.2917V22.5H67.7083V13.5H78.125V22.5H88.5417V13.5H98.9583V49.5H109.375V40.5H119.792V94.5H72.9167V81C72.9167 78.525 71.8976 76.407 69.8594 74.646C67.8212 72.885 65.3681 72.003 62.5 72C59.632 71.997 57.1806 72.879 55.1458 74.646C53.1111 76.413 52.0903 78.531 52.0833 81V94.5H5.20834ZM46.875 54H57.2917V40.5H46.875V54ZM67.7083 54H78.125V40.5H67.7083V54Z" fill="black"/>
</svg>
