<svg width="94" height="43" viewBox="0 0 94 43" fill="none" xmlns="http://www.w3.org/2000/svg">
<path d="M94 29.5C94 36.9558 72.9574 43 47 43C21.0426 43 0 36.9558 0 29.5C0 22.0442 21.0426 16 47 16C72.9574 16 94 22.0442 94 29.5Z" fill="#C8C8C8"/>
<path d="M0 14H94V30H0V14Z" fill="#C8C8C8"/>
<path d="M94 13.5C94 20.9558 72.9574 27 47 27C21.0426 27 0 20.9558 0 13.5C0 6.04416 21.0426 0 47 0C72.9574 0 94 6.04416 94 13.5Z" fill="#AEAEAE"/>
<path d="M45.5 17.75H48.5L47 14.75L45.5 17.75ZM43.5 15C44.05 15 44.521 14.8043 44.913 14.413C45.305 14.0217 45.5007 13.5507 45.5 13C45.4993 12.4493 45.3037 11.9787 44.913 11.588C44.5223 11.1973 44.0513 11.0013 43.5 11C42.9487 10.9987 42.478 11.1947 42.088 11.588C41.698 11.9813 41.502 12.452 41.5 13C41.498 13.548 41.694 14.019 42.088 14.413C42.482 14.807 42.9527 15.0027 43.5 15ZM50.5 15C51.05 15 51.521 14.8043 51.913 14.413C52.305 14.0217 52.5007 13.5507 52.5 13C52.4993 12.4493 52.3037 11.9787 51.913 11.588C51.5223 11.1973 51.0513 11.0013 50.5 11C49.9487 10.9987 49.478 11.1947 49.088 11.588C48.698 11.9813 48.502 12.452 48.5 13C48.498 13.548 48.694 14.019 49.088 14.413C49.482 14.807 49.9527 15.0027 50.5 15ZM41 24V19.75C40.35 19.4667 39.779 19.0877 39.287 18.613C38.795 18.1383 38.3783 17.6007 38.037 17C37.6957 16.3993 37.4373 15.7577 37.262 15.075C37.0867 14.3923 36.9993 13.7007 37 13C37 10.3667 37.9333 8.20833 39.8 6.525C41.6667 4.84167 44.0667 4 47 4C49.9333 4 52.3333 4.84167 54.2 6.525C56.0667 8.20833 57 10.3667 57 13C57 13.7 56.9127 14.3917 56.738 15.075C56.5633 15.7583 56.305 16.4 55.963 17C55.621 17.6 55.2043 18.1377 54.713 18.613C54.2217 19.0883 53.6507 19.4673 53 19.75V24H50V22H48V24H46V22H44V24H41Z" fill="#EDEDED"/>
</svg>
