<svg width="119" height="79" viewBox="0 0 119 79" fill="none" xmlns="http://www.w3.org/2000/svg">
<path d="M56.333 58.5674C55.533 58.8776 54.8883 59.3715 54.3994 60.0488C53.9105 60.7262 53.666 61.4877 53.666 62.333C53.666 63.1783 53.9105 63.9399 54.3994 64.6172C54.8883 65.2945 55.533 65.7885 56.333 66.0996V70.333C56.333 71.7996 55.8109 73.0552 54.7666 74.0996C53.7222 75.144 52.4665 75.6659 51 75.666C49.5334 75.666 48.2778 75.1439 47.2334 74.0996C46.189 73.0552 45.666 71.7997 45.666 70.333V68.7666L47.7998 70.8994L49.666 69L43 62.333V70.333C43 72.5552 43.7775 74.4444 45.333 76C46.8885 77.5554 48.7779 78.333 51 78.333C53.2219 78.3329 55.1106 77.5553 56.666 76C58.2216 74.4444 59 72.5552 59 70.333V66.0996C59.7998 65.8116 60.4438 65.3225 60.9326 64.6328C61.4215 63.943 61.666 63.1766 61.666 62.333C61.666 61.4895 61.4215 60.729 60.9326 60.0508C60.4438 59.3726 59.7999 58.8775 59 58.5664V53H56.333V58.5674ZM82.9834 71.333C81.0834 71.333 79.816 71.6663 79.1826 72.333C78.5493 72.9995 77.5995 73.333 76.333 73.333C75.769 73.333 75.2945 73.5252 74.9092 73.9092C74.5238 74.2932 74.3317 74.7677 74.333 75.333C74.3343 75.8983 74.5265 76.3728 74.9092 76.7568C75.2918 77.1408 75.7663 77.333 76.333 77.333C78.2317 77.3317 79.5321 76.9983 80.2334 76.333C80.9347 75.6678 81.868 75.3343 83.0332 75.333C84.1983 75.3317 85.1227 75.6652 85.8066 76.333C86.4906 77.001 87.7828 77.3343 89.6826 77.333C91.5826 77.3317 92.8501 76.9983 93.4834 76.333C94.1167 75.6678 95.0665 75.3343 96.333 75.333C97.5997 75.3317 98.5589 75.665 99.2109 76.333C99.8629 77.001 101.138 77.3343 103.035 77.333C104.932 77.3317 106.199 76.9983 106.835 76.333C107.471 75.6678 108.421 75.3344 109.685 75.333C110.948 75.3317 111.889 75.6562 112.507 76.3066C113.124 76.9573 114.383 77.2997 116.283 77.333C116.847 77.3356 117.322 77.1441 117.707 76.7588C118.092 76.3735 118.285 75.8983 118.283 75.333C118.282 74.7677 118.09 74.2932 117.707 73.9092C117.324 73.5252 116.85 73.3331 116.283 73.333C115.083 73.333 114.15 72.9995 113.483 72.333C112.817 71.6663 111.533 71.333 109.633 71.333C107.733 71.333 106.466 71.6664 105.833 72.333C105.2 72.9996 104.25 73.3329 102.983 73.333C101.785 73.333 100.851 72.9997 100.183 72.333C99.5146 71.6665 98.2315 71.333 96.333 71.333C94.4343 71.333 93.1595 71.6663 92.5088 72.333C91.8581 72.9996 90.8994 73.333 89.6328 73.333C88.3663 73.333 87.4165 72.9996 86.7832 72.333C86.1499 71.6664 84.8832 71.3331 82.9834 71.333ZM97.7334 39.333C97.3001 39.333 96.9163 39.4494 96.583 39.6826C96.2497 39.9159 95.9997 40.2329 95.833 40.6328L90.333 55.333H85.6328C85.2329 55.3344 84.8665 55.4432 84.5332 55.6592C84.1999 55.8752 83.9499 56.1665 83.7832 56.5332L80.6328 63.6826C79.7662 63.9506 79.0665 64.293 78.5332 64.709C77.9999 65.125 77.2663 65.333 76.333 65.333C75.7663 65.333 75.2918 65.5252 74.9092 65.9092C74.5265 66.2932 74.3343 66.7677 74.333 67.333C74.3317 67.8983 74.5232 68.3728 74.9072 68.7568C75.2912 69.1408 75.7664 69.333 76.333 69.333C78.2317 69.3317 79.5321 68.9983 80.2334 68.333C80.9347 67.6678 81.868 67.3343 83.0332 67.333C84.1983 67.3317 85.1227 67.6652 85.8066 68.333C86.4906 69.001 87.7828 69.3343 89.6826 69.333C91.5826 69.3317 92.8501 68.9983 93.4834 68.333C94.1167 67.6678 95.0665 67.3343 96.333 67.333C97.5997 67.3317 98.5589 67.665 99.2109 68.333C99.8629 69.001 101.138 69.3343 103.035 69.333C104.932 69.3317 106.199 68.9983 106.835 68.333C107.471 67.6678 108.421 67.3344 109.685 67.333C110.948 67.3317 111.889 67.6562 112.507 68.3066C113.124 68.9573 114.383 69.2997 116.283 69.333C116.85 69.3356 117.324 69.1441 117.707 68.7588C118.09 68.3735 118.282 67.8983 118.283 67.333C118.285 66.7677 118.093 66.2932 117.709 65.9092C117.325 65.5252 116.85 65.3331 116.283 65.333C115.251 65.3343 114.46 65.0932 113.909 64.6094C113.359 64.1254 112.533 63.7501 111.433 63.4834L104.733 40.7832C104.6 40.35 104.366 40 104.033 39.7334C103.7 39.4667 103.3 39.333 102.833 39.333H97.7334ZM107.333 63.6826C106.468 63.9506 105.743 64.293 105.159 64.709C104.575 65.1249 103.85 65.3329 102.983 65.333C101.785 65.333 100.851 64.9997 100.183 64.333C99.5146 63.6665 98.2315 63.333 96.333 63.333C94.4343 63.333 93.1595 63.6663 92.5088 64.333C91.8581 64.9996 90.8994 65.333 89.6328 65.333C88.7317 65.3343 87.9898 65.1097 87.4072 64.6592C86.8246 64.2085 86.0331 63.8497 85.0332 63.583L86.9326 59.333H91.7334C92.1652 59.3329 92.5402 59.2167 92.8574 58.9834C93.1747 58.7501 93.4164 58.4331 93.583 58.0332L96.083 51.333H103.683L107.333 63.6826ZM57.666 61C58.0437 61 58.3602 61.1279 58.6152 61.3838C58.8703 61.6398 58.9991 61.9561 59 62.333C59.0009 62.7098 58.8731 63.0263 58.6172 63.2822C58.3612 63.5382 58.0438 63.666 57.666 63.666C57.2902 63.6677 56.9736 63.54 56.7168 63.2832C56.4601 63.0264 56.3321 62.7097 56.333 62.333C56.3339 61.9562 56.4618 61.6398 56.7168 61.3838C56.9718 61.1279 57.2884 61.0001 57.666 61ZM90.4834 37.2832C90.0167 37.2845 89.5826 37.4428 89.1826 37.7588C88.7828 38.0747 88.5831 38.5495 88.583 39.1826C88.5817 39.9493 88.4399 40.6499 88.1572 41.2832C87.8746 41.9164 87.3999 42.6328 86.7334 43.4326C85.8667 44.498 85.233 45.4899 84.833 46.4072C84.4331 47.3244 84.2664 48.3328 84.333 49.4326C84.3663 50.0993 84.5834 50.5828 84.9834 50.8828C85.3834 51.1827 85.8166 51.333 86.2832 51.333C86.7498 51.3343 87.1666 51.1766 87.5332 50.8594C87.8998 50.5421 88.0829 50.0832 88.083 49.4834C88.0497 48.8167 88.1999 48.1326 88.5332 47.4326C88.8665 46.7327 89.3667 45.9825 90.0332 45.1826C90.8664 44.2161 91.4664 43.2662 91.833 42.333C92.1996 41.3998 92.3828 40.3666 92.3828 39.2334C92.3828 38.5694 92.1832 38.0775 91.7832 37.7588C91.3833 37.4402 90.9499 37.282 90.4834 37.2832ZM82.4834 37.2832C82.0167 37.2845 81.5826 37.4428 81.1826 37.7588C80.7828 38.0747 80.5831 38.5495 80.583 39.1826C80.583 39.9493 80.4328 40.6499 80.1328 41.2832C79.8328 41.9165 79.3492 42.6327 78.6826 43.4326C77.8146 44.498 77.1893 45.4899 76.8066 46.4072C76.4241 47.3244 76.2664 48.3329 76.333 49.4326C76.3663 50.0993 76.5834 50.5828 76.9834 50.8828C77.3834 51.1827 77.8166 51.333 78.2832 51.333C78.7524 51.333 79.178 51.1661 79.5605 50.833C79.9431 50.4998 80.1182 50.0499 80.085 49.4834C80.053 48.7848 80.1948 48.0931 80.5107 47.4092C80.8267 46.7252 81.3187 45.9661 81.9854 45.1328C82.8158 44.1663 83.4227 43.2164 83.8066 42.2832C84.1906 41.35 84.3828 40.3332 84.3828 39.2334C84.3828 38.6015 84.1831 38.1179 83.7832 37.7832C83.3833 37.4486 82.9499 37.282 82.4834 37.2832ZM4.43262 46.666C3.12172 46.6661 2.26617 46.8886 1.86621 47.333C1.46626 47.7774 0.844236 47.9999 0 48V50.666C1.26631 50.666 2.13294 50.4443 2.59961 50C3.06628 49.5556 3.68902 49.333 4.4668 49.333C5.26657 49.3331 5.88865 49.5556 6.33301 50C6.77747 50.4443 7.63304 50.666 8.89941 50.666C10.2105 50.666 11.0668 50.4444 11.4668 50C11.8668 49.5556 12.4886 49.333 13.333 49.333C14.1774 49.333 14.7992 49.5556 15.1992 50C15.5992 50.4444 16.4555 50.666 17.7666 50.666C19.033 50.666 19.8885 50.4443 20.333 50C20.7774 49.5556 21.3994 49.3331 22.1992 49.333C22.977 49.333 23.5997 49.5556 24.0664 50C24.5331 50.4443 25.3997 50.666 26.666 50.666V48C25.8218 47.9999 25.1998 47.7774 24.7998 47.333C24.3998 46.8886 23.5443 46.6661 22.2334 46.666C20.9445 46.666 20.0773 46.8886 19.6328 47.333C19.1884 47.7774 18.5775 48 17.7998 48C16.9555 48 16.3276 47.7773 15.916 47.333C15.5045 46.8886 14.6432 46.666 13.333 46.666C12.0228 46.666 11.1615 46.8886 10.749 47.333C10.3366 47.7775 9.70888 48 8.86621 48C8.08855 48 7.47762 47.7774 7.0332 47.333C6.58876 46.8886 5.72151 46.666 4.43262 46.666ZM102.533 47.333H97.583L99.083 43.333H101.333L102.533 47.333ZM3.33301 37.333L4.89941 39.5L6.66602 38.1992V42.666H4.43262L2.19922 40.4668L0.333008 42.333L3.33301 45.333H23.333L26.333 42.333L24.4668 40.4668L22.2334 42.666H20V38.166L21.7666 39.4668L23.333 37.333L13.333 30L3.33301 37.333ZM14.666 42.666H12V40H14.666V42.666ZM40.4326 36.666C39.1217 36.6661 38.2662 36.8886 37.8662 37.333C37.4663 37.7774 36.8442 37.9999 36 38V40.666C37.2663 40.666 38.1329 40.4443 38.5996 40C39.0663 39.5556 39.689 39.333 40.4668 39.333C41.2666 39.3331 41.8886 39.5556 42.333 40C42.7775 40.4443 43.633 40.666 44.8994 40.666C46.2105 40.666 47.0668 40.4444 47.4668 40C47.8668 39.5556 48.4886 39.333 49.333 39.333C50.1774 39.333 50.7992 39.5556 51.1992 40C51.5992 40.4444 52.4555 40.666 53.7666 40.666C55.033 40.666 55.8885 40.4443 56.333 40C56.7774 39.5556 57.3994 39.3331 58.1992 39.333C58.977 39.333 59.5997 39.5556 60.0664 40C60.5331 40.4443 61.3997 40.666 62.666 40.666V38C61.8218 37.9999 61.1998 37.7774 60.7998 37.333C60.3998 36.8886 59.5443 36.6661 58.2334 36.666C56.9445 36.666 56.0773 36.8886 55.6328 37.333C55.1884 37.7774 54.5775 38 53.7998 38C52.9555 38 52.3276 37.7773 51.916 37.333C51.5045 36.8886 50.6432 36.666 49.333 36.666C48.0228 36.666 47.1615 36.8886 46.749 37.333C46.3366 37.7775 45.7089 38 44.8662 38C44.0886 38 43.4776 37.7774 43.0332 37.333C42.5888 36.8886 41.7215 36.666 40.4326 36.666ZM39.333 27.333L40.8994 29.5L42.666 28.1992V32.666H40.4326L38.1992 30.4668L36.333 32.333L39.333 35.333H59.333L62.333 32.333L60.4668 30.4668L58.2334 32.666H56V28.166L57.7666 29.4668L59.333 27.333L49.333 20L39.333 27.333ZM50.666 32.666H48V30H50.666V32.666ZM84.333 0C83.2221 0 82.2777 0.388458 81.5 1.16602C80.7222 1.94379 80.333 2.88889 80.333 4C80.3331 4.86653 80.5825 5.63925 81.082 6.31738C81.5816 6.99555 82.2214 7.47862 83 7.7666V9.33301H79V12H83V23.8994C81.5111 23.6772 80.066 23.1552 78.666 22.333C77.2661 21.5108 76.244 20.5327 75.5996 19.3994L77.666 17.333L72.333 13.333V17.333C72.333 18.6219 72.7052 19.8335 73.4492 20.9668C74.1932 22.0999 75.1435 23.0883 76.2998 23.9326C77.4561 24.777 78.7448 25.4437 80.166 25.9326C81.5873 26.4215 82.9766 26.666 84.333 26.666C85.6886 26.666 87.0778 26.4215 88.5 25.9326C89.9221 25.4437 91.2108 24.777 92.3662 23.9326C93.5216 23.0883 94.4719 22.1 95.2158 20.9668C95.9598 19.8335 96.3321 18.6219 96.333 17.333V13.333L91 17.333L93.0664 19.3994C92.422 20.5327 91.3999 21.5108 90 22.333C88.6 23.1552 87.1549 23.6772 85.666 23.8994V12H89.666V9.33301H85.666V7.7666C86.4438 7.47771 87.0825 6.99365 87.582 6.31543C88.0815 5.6373 88.3321 4.86564 88.333 4C88.333 2.88889 87.9438 1.94379 87.166 1.16602C86.3883 0.388454 85.444 1.86353e-06 84.333 0ZM11.4326 18.666C10.1217 18.6661 9.26617 18.8886 8.86621 19.333C8.46626 19.7774 7.84424 19.9999 7 20V22.666C8.26631 22.666 9.13294 22.4443 9.59961 22C10.0663 21.5556 10.689 21.333 11.4668 21.333C12.2666 21.3331 12.8886 21.5556 13.333 22C13.7775 22.4443 14.633 22.666 15.8994 22.666C17.2105 22.666 18.0668 22.4444 18.4668 22C18.8668 21.5556 19.4886 21.333 20.333 21.333C21.1774 21.333 21.7992 21.5556 22.1992 22C22.5992 22.4444 23.4555 22.666 24.7666 22.666C26.033 22.666 26.8885 22.4443 27.333 22C27.7774 21.5556 28.3994 21.3331 29.1992 21.333C29.977 21.333 30.5997 21.5556 31.0664 22C31.5331 22.4443 32.3997 22.666 33.666 22.666V20C32.8218 19.9999 32.1998 19.7774 31.7998 19.333C31.3998 18.8886 30.5443 18.6661 29.2334 18.666C27.9445 18.666 27.0773 18.8886 26.6328 19.333C26.1884 19.7774 25.5775 20 24.7998 20C23.9555 20 23.3276 19.7773 22.916 19.333C22.5045 18.8886 21.6432 18.666 20.333 18.666C19.0228 18.666 18.1615 18.8886 17.749 19.333C17.3366 19.7775 16.7089 20 15.8662 20C15.0886 20 14.4776 19.7774 14.0332 19.333C13.5888 18.8886 12.7215 18.666 11.4326 18.666ZM10.333 9.33301L11.8994 11.5L13.666 10.1992V14.666H11.4326L9.19922 12.4668L7.33301 14.333L10.333 17.333H30.333L33.333 14.333L31.4668 12.4668L29.2334 14.666H27V10.166L28.7666 11.4668L30.333 9.33301L20.333 2L10.333 9.33301ZM21.666 14.666H19V12H21.666V14.666ZM84.333 2.66602C84.7108 2.66424 85.0271 2.79301 85.2822 3.05078C85.5372 3.30853 85.6651 3.62497 85.666 4C85.6668 4.37496 85.539 4.69161 85.2822 4.9502C85.0253 5.20886 84.709 5.33656 84.333 5.33301C83.9553 5.33301 83.6388 5.20519 83.3828 4.9502C83.1269 4.69516 82.9992 4.37852 83 4C83.0009 3.62141 83.1288 3.30498 83.3838 3.05078C83.6389 2.79656 83.9552 2.66779 84.333 2.66602Z" fill="black"/>
</svg>
