<svg width="119" height="97" viewBox="0 0 119 97" fill="none" xmlns="http://www.w3.org/2000/svg">
<path d="M66 87H64L68 93H60.9502V97H57.0498V93H50L54 87H52L59 77L66 87ZM44 75H42L46 81H38.9502V85H35.0498V81H28L32 75H30L37 65L44 75ZM92 71H90L94 77H86.9502V81H83.0498V77H76L80 71H78L85 61L92 71ZM16 64H14L18 70H10.9502V74H7.0498V70H0L4 64H2L9 54L16 64ZM117 62H115L119 68H111.95V72H108.05V68H101L105 62H103L110 52L117 62ZM64 36.2666L61.667 39.4004L73.333 55.1338V61.333H46.667V55.1338L58.333 39.4004L56 36.2666L58.1338 34.667L60 37.167L61.8662 34.667L64 36.2666ZM54.9668 58.667H65.0332L60 51.6338L54.9668 58.667ZM33 45H31L35 51H27.9502V55H24.0498V51H17L21 45H19L26 35L33 45ZM99 41H97L101 47H93.9502V51H90.0498V47H83L87 41H85L92 31L99 41ZM41 23H39L43 29H35.9502V33H32.0498V29H25L29 23H27L34 13L41 23ZM85 23H83L87 29H79.9502V33H76.0498V29H69L73 23H71L78 13L85 23ZM16 11H14L18 17H10.9502V21H7.0498V17H0L4 11H2L9 1L16 11ZM108 11H106L110 17H102.95V21H99.0498V17H92L96 11H94L101 1L108 11ZM65 10H63L67 16H59.9502V20H56.0498V16H49L53 10H51L58 0L65 10Z" fill="#975DE8"/>
</svg>
