<svg width="94" height="43" viewBox="0 0 94 43" fill="none" xmlns="http://www.w3.org/2000/svg">
<path d="M94 29.5C94 36.9558 72.9574 43 47 43C21.0426 43 0 36.9558 0 29.5C0 22.0442 21.0426 16 47 16C72.9574 16 94 22.0442 94 29.5Z" fill="#EDEDED"/>
<path d="M0 14H94V30H0V14Z" fill="#EDEDED"/>
<path d="M94 13.5C94 20.9558 72.9574 27 47 27C21.0426 27 0 20.9558 0 13.5C0 6.04416 21.0426 0 47 0C72.9574 0 94 6.04416 94 13.5Z" fill="#C8C8C8"/>
<path d="M45.625 16.75H48.375L47 13.75L45.625 16.75ZM43.7917 14C44.2958 14 44.7276 13.8043 45.0869 13.413C45.4463 13.0217 45.6256 12.5507 45.625 12C45.6244 11.4493 45.445 10.9787 45.0869 10.588C44.7288 10.1973 44.2971 10.0013 43.7917 10C43.2863 9.99867 42.8548 10.1947 42.4973 10.588C42.1398 10.9813 41.9602 11.452 41.9583 12C41.9565 12.548 42.1362 13.019 42.4973 13.413C42.8585 13.807 43.2899 14.0027 43.7917 14ZM50.2083 14C50.7125 14 51.1443 13.8043 51.5036 13.413C51.8629 13.0217 52.0423 12.5507 52.0417 12C52.0411 11.4493 51.8617 10.9787 51.5036 10.588C51.1455 10.1973 50.7137 10.0013 50.2083 10C49.7029 9.99867 49.2715 10.1947 48.914 10.588C48.5565 10.9813 48.3768 11.452 48.375 12C48.3732 12.548 48.5528 13.019 48.914 13.413C49.2752 13.807 49.7066 14.0027 50.2083 14ZM41.5 23V18.75C40.9042 18.4667 40.3808 18.0877 39.9298 17.613C39.4788 17.1383 39.0968 16.6007 38.7839 16C38.471 15.3993 38.2342 14.7577 38.0735 14.075C37.9128 13.3923 37.8327 12.7007 37.8333 12C37.8333 9.36667 38.6889 7.20833 40.4 5.525C42.1111 3.84167 44.3111 3 47 3C49.6889 3 51.8889 3.84167 53.6 5.525C55.3111 7.20833 56.1667 9.36667 56.1667 12C56.1667 12.7 56.0866 13.3917 55.9265 14.075C55.7664 14.7583 55.5296 15.4 55.2161 16C54.9026 16.6 54.5206 17.1377 54.0703 17.613C53.6199 18.0883 53.0964 18.4673 52.5 18.75V23H49.75V21H47.9167V23H46.0833V21H44.25V23H41.5Z" fill="#EDEDED"/>
</svg>
