<svg width="122" height="60" viewBox="0 0 122 60" fill="none" xmlns="http://www.w3.org/2000/svg">
<path d="M121.754 29.1543V29.7568C121.754 46.6708 109.037 54.8792 101.057 58.3652C99.5269 59.0342 98.5368 59.469 97.004 59.6641V20.9043L121.754 29.1543ZM92.504 59.6611C90.971 59.4661 89.9803 59.0342 88.4503 58.3652C80.4703 54.8792 67.754 46.6706 67.754 29.7568V29.1543L92.504 20.9043V59.6611ZM51.754 2.78418V17.0342L24.9933 43.7939L29.254 48.0537L25.0235 52.2842L16.9835 44.3037L7.62413 53.6641C7.34659 53.9422 7.01635 54.1629 6.65343 54.3135C6.29061 54.464 5.90169 54.542 5.5089 54.542C5.11599 54.542 4.72631 54.464 4.36339 54.3135C4.0006 54.1629 3.67112 53.9421 3.39367 53.6641L0.874134 51.1445C-0.295866 49.9745 -0.296569 48.0838 0.903431 46.8838L10.2638 37.5244L2.25402 29.5146L6.48351 25.2842L10.7433 29.5439L37.504 2.78418H51.754ZM15.754 32.9639L18.754 35.7842L45.754 8.78418L15.754 32.9639ZM92.504 16.1641L67.754 24.4141C67.754 15.2341 67.7778 10.6083 68.8878 9.03027C70.0188 7.41628 74.528 5.87417 83.5489 2.78418L85.2677 2.19922C88.5497 1.07422 90.686 0.341929 92.504 0.00292969V16.1641ZM97.004 0C98.8219 0.33902 100.958 1.0714 104.239 2.19629L105.959 2.78418C114.98 5.87104 119.488 7.41339 120.619 9.02734C121.729 10.6053 121.754 15.2312 121.754 24.4082L97.004 16.1641V0Z" fill="black"/>
</svg>
