<svg width="105" height="76" viewBox="0 0 105 76" fill="none" xmlns="http://www.w3.org/2000/svg">
<path d="M50 42C53.6943 42 56.8407 43.2918 59.4385 45.875C62.0363 48.4583 63.3351 51.6118 63.334 55.334V75.334H40V68.667C40 68.0281 40.1667 67.4518 40.5 66.9385C40.8333 66.4251 41.2784 66.0157 41.834 65.709L50 61.584V58.667L44.209 61.542C43.8757 61.7087 43.5281 61.8337 43.167 61.917C42.806 62.0003 42.445 62.042 42.084 62.042C41.2229 62.042 40.41 61.8194 39.6455 61.375C38.8811 60.9306 38.2906 60.2923 37.875 59.459C37.4861 58.709 37.3194 57.9101 37.375 57.0635C37.4306 56.217 37.6949 55.4322 38.167 54.709L43.334 47L40 42H50ZM23.334 10L20 15L25.167 22.709C25.6391 23.4322 25.9034 24.217 25.959 25.0635C26.0145 25.9101 25.8479 26.709 25.459 27.459C25.0434 28.2923 24.4529 28.9306 23.6885 29.375C22.924 29.8194 22.1111 30.042 21.25 30.042C20.889 30.042 20.528 30.0003 20.167 29.917C19.8059 29.8337 19.4583 29.7087 19.125 29.542L13.334 26.667V29.584L21.5 33.709C22.0556 34.0157 22.5007 34.4251 22.834 34.9385C23.1673 35.4518 23.334 36.0281 23.334 36.667V43.334H0V23.334C-0.00111111 19.6118 1.29773 16.4583 3.89551 13.875C6.49324 11.2918 9.63966 10 13.334 10H23.334ZM91 0C94.6943 0 97.8407 1.29184 100.438 3.875C103.036 6.45833 104.335 9.61176 104.334 13.334V33.334H81V26.667C81 26.0281 81.1667 25.4518 81.5 24.9385C81.8333 24.4251 82.2784 24.0157 82.834 23.709L91 19.584V16.667L85.209 19.542C84.8757 19.7087 84.5281 19.8337 84.167 19.917C83.806 20.0003 83.445 20.042 83.084 20.042C82.2229 20.042 81.41 19.8194 80.6455 19.375C79.8811 18.9306 79.2906 18.2923 78.875 17.459C78.4861 16.709 78.3194 15.9101 78.375 15.0635C78.4306 14.217 78.6949 13.4322 79.167 12.709L84.334 5L81 0H91Z" fill="black"/>
</svg>
