<svg width="105" height="76" viewBox="0 0 105 76" fill="none" xmlns="http://www.w3.org/2000/svg">
<path d="M54.334 42C50.6397 42 47.4932 43.2918 44.8955 45.875C42.2977 48.4583 40.9989 51.6118 41 55.334V75.334H64.334V68.667C64.334 68.0281 64.1673 67.4518 63.834 66.9385C63.5007 66.4251 63.0556 66.0157 62.5 65.709L54.334 61.584V58.667L60.125 61.542C60.4583 61.7087 60.8059 61.8337 61.167 61.917C61.528 62.0003 61.889 62.042 62.25 62.042C63.1111 62.042 63.924 61.8194 64.6885 61.375C65.4529 60.9306 66.0434 60.2923 66.459 59.459C66.8479 58.709 67.0145 57.9101 66.959 57.0635C66.9034 56.217 66.6391 55.4322 66.167 54.709L61 47L64.334 42H54.334ZM81 10L84.334 15L79.167 22.709C78.6949 23.4322 78.4306 24.217 78.375 25.0635C78.3194 25.9101 78.4861 26.709 78.875 27.459C79.2906 28.2923 79.8811 28.9306 80.6455 29.375C81.41 29.8194 82.2229 30.042 83.084 30.042C83.445 30.042 83.806 30.0003 84.167 29.917C84.5281 29.8337 84.8757 29.7087 85.209 29.542L91 26.667V29.584L82.834 33.709C82.2784 34.0157 81.8333 34.4251 81.5 34.9385C81.1667 35.4518 81 36.0281 81 36.667V43.334H104.334V23.334C104.335 19.6118 103.036 16.4583 100.438 13.875C97.8407 11.2918 94.6943 10 91 10H81ZM13.334 0C9.63966 0 6.49324 1.29184 3.89551 3.875C1.29773 6.45833 -0.00111182 9.61176 -7.12277e-07 13.334V33.334H23.334V26.667C23.334 26.0281 23.1673 25.4518 22.834 24.9385C22.5007 24.4251 22.0556 24.0157 21.5 23.709L13.334 19.584V16.667L19.125 19.542C19.4583 19.7087 19.8059 19.8337 20.167 19.917C20.528 20.0003 20.889 20.042 21.25 20.042C22.1111 20.042 22.924 19.8194 23.6885 19.375C24.4529 18.9306 25.0434 18.2923 25.459 17.459C25.8479 16.709 26.0145 15.9101 25.959 15.0635C25.9034 14.217 25.6391 13.4322 25.167 12.709L20 5L23.334 0H13.334Z" fill="black"/>
</svg>
