<svg width="119" height="79" viewBox="0 0 119 79" fill="none" xmlns="http://www.w3.org/2000/svg">
<path d="M72.6172 58.5664C73.417 58.8775 74.061 59.3726 74.5498 60.0508C75.0386 60.729 75.2832 61.4895 75.2832 62.333C75.2832 63.1766 75.0387 63.943 74.5498 64.6328C74.061 65.3225 73.417 65.8116 72.6172 66.0996V70.333C72.6172 72.5552 71.8388 74.4444 70.2832 76C68.7278 77.5553 66.8391 78.3329 64.6172 78.333C62.395 78.333 60.5057 77.5554 58.9502 76C57.3946 74.4444 56.6172 72.5552 56.6172 70.333V62.333L63.2832 69L61.417 70.8994L59.2832 68.7666V70.333C59.2832 71.7997 59.8061 73.0552 60.8506 74.0996C61.895 75.1439 63.1506 75.666 64.6172 75.666C66.0837 75.6659 67.3394 75.144 68.3838 74.0996C69.4281 73.0552 69.9502 71.7996 69.9502 70.333V66.0996C69.1502 65.7885 68.5055 65.2945 68.0166 64.6172C67.5277 63.9399 67.2832 63.1783 67.2832 62.333C67.2832 61.4877 67.5277 60.7262 68.0166 60.0488C68.5055 59.3715 69.1502 58.8776 69.9502 58.5674V53H72.6172V58.5664ZM35.2998 71.333C37.1998 71.333 38.4673 71.6663 39.1006 72.333C39.7339 72.9995 40.6837 73.333 41.9502 73.333C42.5142 73.333 42.9887 73.5252 43.374 73.9092C43.7594 74.2932 43.9515 74.7677 43.9502 75.333C43.9489 75.8983 43.7567 76.3728 43.374 76.7568C42.9914 77.1408 42.5169 77.333 41.9502 77.333C40.0515 77.3317 38.7511 76.9983 38.0498 76.333C37.3485 75.6678 36.4152 75.3343 35.25 75.333C34.0849 75.3317 33.1605 75.6652 32.4766 76.333C31.7926 77.001 30.5004 77.3343 28.6006 77.333C26.7006 77.3317 25.4331 76.9983 24.7998 76.333C24.1665 75.6678 23.2167 75.3343 21.9502 75.333C20.6836 75.3317 19.7243 75.665 19.0723 76.333C18.4203 77.001 17.1454 77.3343 15.248 77.333C13.3508 77.3317 12.0842 76.9983 11.4482 76.333C10.8123 75.6678 9.86242 75.3344 8.59863 75.333C7.33481 75.3317 6.3937 75.6562 5.77637 76.3066C5.15903 76.9573 3.9 77.2997 2 77.333C1.43609 77.3356 0.961459 77.1441 0.576172 76.7588C0.190921 76.3735 -0.00133276 75.8983 0 75.333C0.00133322 74.7677 0.193573 74.2932 0.576172 73.9092C0.958793 73.5252 1.43342 73.3331 2 73.333C3.19988 73.333 4.13315 72.9995 4.7998 72.333C5.46647 71.6663 6.75039 71.333 8.65039 71.333C10.5503 71.333 11.8169 71.6664 12.4502 72.333C13.0835 72.9996 14.0333 73.3329 15.2998 73.333C16.4985 73.333 17.4326 72.9997 18.1006 72.333C18.7686 71.6665 20.0517 71.333 21.9502 71.333C23.8489 71.333 25.1237 71.6663 25.7744 72.333C26.4251 72.9996 27.3838 73.333 28.6504 73.333C29.9169 73.333 30.8667 72.9996 31.5 72.333C32.1333 71.6664 33.4 71.3331 35.2998 71.333ZM20.5498 39.333C20.9831 39.333 21.3669 39.4494 21.7002 39.6826C22.0335 39.9159 22.2835 40.2329 22.4502 40.6328L27.9502 55.333H32.6504C33.0503 55.3344 33.4167 55.4432 33.75 55.6592C34.0833 55.8752 34.3333 56.1665 34.5 56.5332L37.6504 63.6826C38.517 63.9506 39.2167 64.293 39.75 64.709C40.2833 65.125 41.0169 65.333 41.9502 65.333C42.5169 65.333 42.9914 65.5252 43.374 65.9092C43.7567 66.2932 43.9489 66.7677 43.9502 67.333C43.9515 67.8983 43.76 68.3728 43.376 68.7568C42.992 69.1408 42.5168 69.333 41.9502 69.333C40.0515 69.3317 38.7511 68.9983 38.0498 68.333C37.3485 67.6678 36.4152 67.3343 35.25 67.333C34.0849 67.3317 33.1605 67.6652 32.4766 68.333C31.7926 69.001 30.5004 69.3343 28.6006 69.333C26.7006 69.3317 25.4331 68.9983 24.7998 68.333C24.1665 67.6678 23.2167 67.3343 21.9502 67.333C20.6836 67.3317 19.7243 67.665 19.0723 68.333C18.4203 69.001 17.1454 69.3343 15.248 69.333C13.3508 69.3317 12.0842 68.9983 11.4482 68.333C10.8123 67.6678 9.86242 67.3344 8.59863 67.333C7.33481 67.3317 6.3937 67.6562 5.77637 68.3066C5.15903 68.9573 3.9 69.2997 2 69.333C1.43342 69.3356 0.958793 69.1441 0.576172 68.7588C0.193588 68.3735 0.00133319 67.8983 0 67.333C-0.00133303 66.7677 0.190271 66.2932 0.574219 65.9092C0.958173 65.5252 1.43342 65.3331 2 65.333C3.03182 65.3343 3.82337 65.0932 4.37402 64.6094C4.92469 64.1254 5.75059 63.7501 6.85059 63.4834L13.5498 40.7832C13.6831 40.35 13.9168 40 14.25 39.7334C14.5833 39.4667 14.9835 39.333 15.4502 39.333H20.5498ZM10.9502 63.6826C11.8155 63.9506 12.54 64.293 13.124 64.709C13.7079 65.1249 14.4333 65.3329 15.2998 65.333C16.4985 65.333 17.4326 64.9997 18.1006 64.333C18.7686 63.6665 20.0517 63.333 21.9502 63.333C23.8489 63.333 25.1237 63.6663 25.7744 64.333C26.4251 64.9996 27.3838 65.333 28.6504 65.333C29.5515 65.3343 30.2934 65.1097 30.876 64.6592C31.4586 64.2085 32.2501 63.8497 33.25 63.583L31.3506 59.333H26.5498C26.118 59.3329 25.743 59.2167 25.4258 58.9834C25.1085 58.7501 24.8668 58.4331 24.7002 58.0332L22.2002 51.333H14.6006L10.9502 63.6826ZM71.2832 61C70.9056 61.0001 70.589 61.1279 70.334 61.3838C70.079 61.6398 69.9511 61.9562 69.9502 62.333C69.9493 62.7097 70.0773 63.0264 70.334 63.2832C70.5908 63.54 70.9073 63.6677 71.2832 63.666C71.661 63.666 71.9784 63.5382 72.2344 63.2822C72.4903 63.0263 72.6181 62.7098 72.6172 62.333C72.6163 61.9561 72.4875 61.6398 72.2324 61.3838C71.9773 61.1279 71.6609 61 71.2832 61ZM27.7998 37.2832C28.2665 37.2845 28.7006 37.4428 29.1006 37.7588C29.5004 38.0747 29.7001 38.5495 29.7002 39.1826C29.7015 39.9493 29.8433 40.6499 30.126 41.2832C30.4086 41.9164 30.8834 42.6328 31.5498 43.4326C32.4165 44.498 33.0502 45.4899 33.4502 46.4072C33.8501 47.3244 34.0168 48.3328 33.9502 49.4326C33.9169 50.0993 33.6998 50.5828 33.2998 50.8828C32.8998 51.1827 32.4666 51.333 32 51.333C31.5334 51.3343 31.1166 51.1766 30.75 50.8594C30.3834 50.5421 30.2003 50.0832 30.2002 49.4834C30.2335 48.8167 30.0833 48.1326 29.75 47.4326C29.4167 46.7327 28.9165 45.9825 28.25 45.1826C27.4168 44.2161 26.8168 43.2662 26.4502 42.333C26.0836 41.3998 25.9004 40.3666 25.9004 39.2334C25.9004 38.5694 26.1 38.0775 26.5 37.7588C26.8999 37.4402 27.3333 37.282 27.7998 37.2832ZM35.7998 37.2832C36.2665 37.2845 36.7006 37.4428 37.1006 37.7588C37.5004 38.0747 37.7001 38.5495 37.7002 39.1826C37.7002 39.9493 37.8504 40.6499 38.1504 41.2832C38.4504 41.9165 38.934 42.6327 39.6006 43.4326C40.4686 44.498 41.0939 45.4899 41.4766 46.4072C41.8591 47.3244 42.0168 48.3329 41.9502 49.4326C41.9169 50.0993 41.6998 50.5828 41.2998 50.8828C40.8998 51.1827 40.4666 51.333 40 51.333C39.5309 51.333 39.1052 51.1661 38.7227 50.833C38.3401 50.4998 38.165 50.0499 38.1982 49.4834C38.2302 48.7848 38.0884 48.0931 37.7725 47.4092C37.4565 46.7252 36.9645 45.9661 36.2979 45.1328C35.4674 44.1663 34.8605 43.2164 34.4766 42.2832C34.0926 41.35 33.9004 40.3332 33.9004 39.2334C33.9004 38.6015 34.1001 38.1179 34.5 37.7832C34.8999 37.4486 35.3333 37.282 35.7998 37.2832ZM113.851 46.666C115.161 46.6661 116.017 46.8886 116.417 47.333C116.817 47.7774 117.439 47.9999 118.283 48V50.666C117.017 50.666 116.15 50.4443 115.684 50C115.217 49.5556 114.594 49.333 113.816 49.333C113.017 49.3331 112.395 49.5556 111.95 50C111.506 50.4443 110.65 50.666 109.384 50.666C108.073 50.666 107.216 50.4444 106.816 50C106.416 49.5556 105.795 49.333 104.95 49.333C104.106 49.333 103.484 49.5556 103.084 50C102.684 50.4444 101.828 50.666 100.517 50.666C99.2502 50.666 98.3947 50.4443 97.9502 50C97.5058 49.5556 96.8838 49.3331 96.084 49.333C95.3062 49.333 94.6835 49.5556 94.2168 50C93.7501 50.4443 92.8835 50.666 91.6172 50.666V48C92.4614 47.9999 93.0834 47.7774 93.4834 47.333C93.8834 46.8886 94.7389 46.6661 96.0498 46.666C97.3387 46.666 98.2059 46.8886 98.6504 47.333C99.0948 47.7774 99.7057 48 100.483 48C101.328 48 101.956 47.7773 102.367 47.333C102.779 46.8886 103.64 46.666 104.95 46.666C106.26 46.666 107.122 46.8886 107.534 47.333C107.947 47.7775 108.574 48 109.417 48C110.195 48 110.806 47.7774 111.25 47.333C111.694 46.8886 112.562 46.666 113.851 46.666ZM15.75 47.333H20.7002L19.2002 43.333H16.9502L15.75 47.333ZM114.95 37.333L113.384 39.5L111.617 38.1992V42.666H113.851L116.084 40.4668L117.95 42.333L114.95 45.333H94.9502L91.9502 42.333L93.8164 40.4668L96.0498 42.666H98.2832V38.166L96.5166 39.4668L94.9502 37.333L104.95 30L114.95 37.333ZM103.617 42.666H106.283V40H103.617V42.666ZM77.8506 36.666C79.1615 36.6661 80.017 36.8886 80.417 37.333C80.8169 37.7774 81.439 37.9999 82.2832 38V40.666C81.0169 40.666 80.1503 40.4443 79.6836 40C79.2169 39.5556 78.5942 39.333 77.8164 39.333C77.0166 39.3331 76.3946 39.5556 75.9502 40C75.5057 40.4443 74.6502 40.666 73.3838 40.666C72.0727 40.666 71.2164 40.4444 70.8164 40C70.4164 39.5556 69.7946 39.333 68.9502 39.333C68.1058 39.333 67.484 39.5556 67.084 40C66.684 40.4444 65.8277 40.666 64.5166 40.666C63.2502 40.666 62.3947 40.4443 61.9502 40C61.5058 39.5556 60.8838 39.3331 60.084 39.333C59.3062 39.333 58.6835 39.5556 58.2168 40C57.7501 40.4443 56.8835 40.666 55.6172 40.666V38C56.4614 37.9999 57.0834 37.7774 57.4834 37.333C57.8834 36.8886 58.7389 36.6661 60.0498 36.666C61.3387 36.666 62.2059 36.8886 62.6504 37.333C63.0948 37.7774 63.7057 38 64.4834 38C65.3277 38 65.9556 37.7773 66.3672 37.333C66.7787 36.8886 67.64 36.666 68.9502 36.666C70.2604 36.666 71.1217 36.8886 71.5342 37.333C71.9466 37.7775 72.5743 38 73.417 38C74.1947 38 74.8056 37.7774 75.25 37.333C75.6944 36.8886 76.5617 36.666 77.8506 36.666ZM78.9502 27.333L77.3838 29.5L75.6172 28.1992V32.666H77.8506L80.084 30.4668L81.9502 32.333L78.9502 35.333H58.9502L55.9502 32.333L57.8164 30.4668L60.0498 32.666H62.2832V28.166L60.5166 29.4668L58.9502 27.333L68.9502 20L78.9502 27.333ZM67.6172 32.666H70.2832V30H67.6172V32.666ZM33.9502 0C35.0611 0 36.0055 0.388458 36.7832 1.16602C37.561 1.94379 37.9502 2.88889 37.9502 4C37.9501 4.86653 37.7007 5.63925 37.2012 6.31738C36.7016 6.99555 36.0618 7.47862 35.2832 7.7666V9.33301H39.2832V12H35.2832V23.8994C36.7721 23.6772 38.2172 23.1552 39.6172 22.333C41.0171 21.5108 42.0392 20.5327 42.6836 19.3994L40.6172 17.333L45.9502 13.333V17.333C45.9502 18.6219 45.578 19.8335 44.834 20.9668C44.09 22.0999 43.1397 23.0883 41.9834 23.9326C40.8271 24.777 39.5384 25.4437 38.1172 25.9326C36.6959 26.4215 35.3066 26.666 33.9502 26.666C32.5946 26.666 31.2054 26.4215 29.7832 25.9326C28.3611 25.4437 27.0724 24.777 25.917 23.9326C24.7616 23.0883 23.8113 22.1 23.0674 20.9668C22.3234 19.8335 21.9511 18.6219 21.9502 17.333V13.333L27.2832 17.333L25.2168 19.3994C25.8612 20.5327 26.8833 21.5108 28.2832 22.333C29.6832 23.1552 31.1283 23.6772 32.6172 23.8994V12H28.6172V9.33301H32.6172V7.7666C31.8394 7.47771 31.2007 6.99365 30.7012 6.31543C30.2017 5.6373 29.9511 4.86564 29.9502 4C29.9502 2.88889 30.3394 1.94379 31.1172 1.16602C31.8949 0.388454 32.8392 1.86353e-06 33.9502 0ZM106.851 18.666C108.161 18.6661 109.017 18.8886 109.417 19.333C109.817 19.7774 110.439 19.9999 111.283 20V22.666C110.017 22.666 109.15 22.4443 108.684 22C108.217 21.5556 107.594 21.333 106.816 21.333C106.017 21.3331 105.395 21.5556 104.95 22C104.506 22.4443 103.65 22.666 102.384 22.666C101.073 22.666 100.216 22.4444 99.8164 22C99.4164 21.5556 98.7946 21.333 97.9502 21.333C97.1058 21.333 96.484 21.5556 96.084 22C95.684 22.4444 94.8277 22.666 93.5166 22.666C92.2502 22.666 91.3947 22.4443 90.9502 22C90.5058 21.5556 89.8838 21.3331 89.084 21.333C88.3062 21.333 87.6835 21.5556 87.2168 22C86.7501 22.4443 85.8835 22.666 84.6172 22.666V20C85.4614 19.9999 86.0834 19.7774 86.4834 19.333C86.8834 18.8886 87.7389 18.6661 89.0498 18.666C90.3387 18.666 91.2059 18.8886 91.6504 19.333C92.0948 19.7774 92.7057 20 93.4834 20C94.3277 20 94.9556 19.7773 95.3672 19.333C95.7787 18.8886 96.64 18.666 97.9502 18.666C99.2604 18.666 100.122 18.8886 100.534 19.333C100.947 19.7775 101.574 20 102.417 20C103.195 20 103.806 19.7774 104.25 19.333C104.694 18.8886 105.562 18.666 106.851 18.666ZM107.95 9.33301L106.384 11.5L104.617 10.1992V14.666H106.851L109.084 12.4668L110.95 14.333L107.95 17.333H87.9502L84.9502 14.333L86.8164 12.4668L89.0498 14.666H91.2832V10.166L89.5166 11.4668L87.9502 9.33301L97.9502 2L107.95 9.33301ZM96.6172 14.666H99.2832V12H96.6172V14.666ZM33.9502 2.66602C33.5724 2.66424 33.2561 2.79301 33.001 3.05078C32.746 3.30853 32.6181 3.62497 32.6172 4C32.6164 4.37496 32.7442 4.69161 33.001 4.9502C33.2579 5.20886 33.5742 5.33656 33.9502 5.33301C34.3279 5.33301 34.6444 5.20519 34.9004 4.9502C35.1563 4.69516 35.284 4.37852 35.2832 4C35.2823 3.62141 35.1544 3.30498 34.8994 3.05078C34.6443 2.79656 34.328 2.66779 33.9502 2.66602Z" fill="black"/>
</svg>
