<svg width="48" height="48" viewBox="0 0 48 48" fill="none" xmlns="http://www.w3.org/2000/svg">
<path d="M44.409 22.152C43.608 20.091 42.837 17.85 41.961 16.782C41.445 16.149 40.41 15.135 38.265 15.174C36.561 15.06 33.3 16.248 33.012 18.051C32.769 19.188 31.074 18.417 31.074 18.417C31.074 18.417 36.297 20.01 31.599 27.183L32.316 30.9L36.606 31.818L38.514 28.653C37.338 27.48 38.13 23.214 39.471 22.182C40.914 21.06 41.982 21.201 43.731 22.401" fill="#00009D"/>
<path d="M5.127 17.16C5.619 17.529 5.925 18.198 5.925 18.198C5.925 18.198 7.035 20.916 9.18 22.257C11.325 23.598 10.635 28.998 10.635 28.998L10.716 31.818L16.818 30.462L17.34 27.72L16.467 27.183C15.939 26.772 15.522 26.136 15.222 25.557C14.766 24.678 14.223 23.382 14.43 21.564C14.577 20.523 15.12 19.782 15.885 19.578C15.885 19.578 13.122 20.229 10.737 16.743C9.21 14.508 6.468 15.453 4.97701 16.29L5.124 17.16H5.127Z" fill="#2F00FF"/>
<path d="M29.25 12.918C28.467 12.573 27.633 12.555 27.189 12.576C27.057 12.582 26.964 12.768 26.931 12.894C26.835 13.239 27.147 14.073 27.966 15.612C28.734 17.058 29.829 17.802 31.077 18.414C31.077 18.414 36.3 20.007 31.602 27.18L28.752 29.913L17.937 30.459L16.47 27.18C15.942 26.769 15.525 26.133 15.225 25.554C14.769 24.675 14.226 23.379 14.433 21.561C14.58 20.52 15.123 19.779 15.888 19.575C15.888 19.575 19.128 18.564 20.085 13.509C20.637 9.28499 25.563 6.00299 28.203 8.72099C29.16 9.70799 29.673 11.397 29.793 12.378" fill="#0000D5"/>
<path d="M12.933 30.831L8.76 27.582L6.633 25.968L10.482 34.092C14.043 32.829 34.917 32.952 38.133 34.092L41.304 26.58L39.855 27.579L35.682 30.828L34.956 27.327L32.859 29.919L31.377 24.231L28.071 28.5L24.234 23.637L20.097 28.5L17.232 24.231L15.75 29.919L13.776 27.549L12.927 30.828L12.933 30.831Z" fill="#F7E418"/>
<path d="M43.731 22.401C43.212 22.719 42.864 23.292 42.864 23.943C42.864 24.945 43.677 25.755 44.676 25.755C45.675 25.755 46.488 24.942 46.488 23.943C46.488 22.944 45.675 22.131 44.676 22.131C44.583 22.131 44.496 22.14 44.406 22.152L43.728 22.398L43.731 22.401Z" fill="#F7E418"/>
<path d="M29.793 12.384C30.075 12.204 30.408 12.099 30.768 12.099C31.77 12.099 32.58 12.912 32.58 13.911C32.58 14.91 31.767 15.723 30.768 15.723C29.769 15.723 28.956 14.91 28.956 13.911C28.956 13.545 29.067 13.203 29.253 12.918L29.796 12.384H29.793Z" fill="#F7E418"/>
<path d="M4.98 16.29C4.698 15.651 4.062 15.207 3.321 15.207C2.319 15.207 1.509 16.02 1.509 17.019C1.509 18.018 2.322 18.831 3.321 18.831C4.32 18.831 5.055 18.096 5.127 17.16" fill="#F7E418"/>
</svg>
