<svg width="160" height="160" viewBox="0 0 160 160" fill="none" xmlns="http://www.w3.org/2000/svg">
<path d="M148.03 73.84C145.36 66.97 142.79 59.5 139.87 55.94C138.15 53.83 134.7 50.45 127.55 50.58C121.87 50.2 111 54.16 110.04 60.17C109.23 63.96 103.58 61.39 103.58 61.39C103.58 61.39 120.99 66.7 105.33 90.61L107.72 103L122.02 106.06L128.38 95.51C124.46 91.6 127.1 77.38 131.57 73.94C136.38 70.2 139.94 70.67 145.77 74.67" fill="#00009D"/>
<path d="M17.09 57.2C18.73 58.43 19.75 60.66 19.75 60.66C19.75 60.66 23.45 69.72 30.6 74.19C37.75 78.66 35.45 96.66 35.45 96.66L35.72 106.06L56.06 101.54L57.8 92.4L54.89 90.61C53.13 89.24 51.74 87.12 50.74 85.19C49.22 82.26 47.41 77.94 48.1 71.88C48.59 68.41 50.4 65.94 52.95 65.26C52.95 65.26 43.74 67.43 35.79 55.81C30.7 48.36 21.56 51.51 16.59 54.3L17.08 57.2H17.09Z" fill="#2F00FF"/>
<path d="M29.08 131.8L27.44 117.9L31.69 117.4C32.54 117.3 33.3 117.42 33.97 117.75C34.64 118.09 35.19 118.62 35.61 119.36C36.03 120.1 36.31 120.99 36.43 122.03C36.56 123.1 36.5 124.04 36.25 124.84C36.01 125.64 35.6 126.29 35.03 126.78C34.46 127.27 33.74 127.57 32.89 127.67L30.09 128L31.07 126.13L31.7 131.49L29.06 131.8H29.08ZM31.14 126.58L29.74 124.87L32.38 124.56C32.93 124.5 33.32 124.27 33.56 123.89C33.79 123.51 33.87 122.99 33.8 122.34C33.73 121.72 33.53 121.24 33.21 120.91C32.89 120.58 32.46 120.45 31.91 120.51L29.27 120.82L30.24 118.87L31.15 126.58H31.14Z" fill="#FF0011"/>
<path d="M42.16 130.62C41.37 130.68 40.64 130.5 39.99 130.07C39.34 129.64 38.8 129.02 38.38 128.2C37.96 127.38 37.71 126.44 37.62 125.36C37.53 124.27 37.63 123.29 37.92 122.42C38.21 121.55 38.64 120.85 39.21 120.32C39.78 119.79 40.47 119.5 41.27 119.43C42.06 119.37 42.79 119.55 43.45 119.98C44.11 120.41 44.65 121.03 45.07 121.85C45.49 122.67 45.74 123.62 45.83 124.71C45.92 125.79 45.82 126.76 45.53 127.63C45.24 128.5 44.81 129.2 44.23 129.73C43.65 130.26 42.96 130.55 42.17 130.62H42.16ZM41.92 127.61C42.21 127.59 42.45 127.47 42.67 127.25C42.89 127.03 43.04 126.72 43.15 126.32C43.26 125.92 43.29 125.44 43.25 124.9C43.21 124.34 43.1 123.88 42.93 123.52C42.76 123.16 42.56 122.89 42.31 122.71C42.07 122.53 41.8 122.45 41.52 122.47C41.23 122.49 40.99 122.61 40.77 122.83C40.56 123.05 40.4 123.35 40.29 123.73C40.18 124.11 40.15 124.58 40.19 125.14C40.23 125.68 40.34 126.15 40.51 126.53C40.68 126.91 40.89 127.19 41.13 127.37C41.37 127.55 41.64 127.63 41.92 127.61Z" fill="#FF0011"/>
<path d="M49.97 130.1C49.35 130.14 48.75 130.06 48.15 129.88C47.55 129.7 47.07 129.46 46.69 129.16L47.29 126.52C47.66 126.81 48.07 127.03 48.54 127.19C49.01 127.35 49.46 127.42 49.9 127.39C50.33 127.37 50.62 127.28 50.78 127.13C50.94 126.98 51.01 126.79 51 126.55C50.99 126.35 50.9 126.2 50.75 126.1C50.59 126 50.38 125.94 50.12 125.9C49.86 125.87 49.58 125.83 49.27 125.79C48.96 125.75 48.66 125.67 48.34 125.56C48.02 125.45 47.73 125.29 47.46 125.08C47.19 124.87 46.97 124.57 46.8 124.18C46.63 123.79 46.52 123.29 46.49 122.68C46.45 121.99 46.55 121.36 46.79 120.81C47.03 120.26 47.41 119.8 47.91 119.45C48.41 119.1 49.05 118.91 49.82 118.86C50.33 118.83 50.85 118.88 51.38 119.01C51.91 119.14 52.36 119.35 52.74 119.63L52.12 122.27C51.74 121.97 51.38 121.78 51.01 121.69C50.65 121.6 50.31 121.57 50 121.59C49.57 121.61 49.27 121.7 49.09 121.85C48.91 122 48.83 122.18 48.84 122.39C48.85 122.6 48.94 122.76 49.11 122.87C49.28 122.97 49.49 123.05 49.74 123.09C49.99 123.13 50.28 123.18 50.59 123.22C50.9 123.26 51.21 123.34 51.52 123.44C51.83 123.54 52.12 123.7 52.38 123.92C52.64 124.14 52.86 124.44 53.04 124.82C53.22 125.2 53.33 125.71 53.36 126.33C53.4 126.98 53.3 127.58 53.06 128.13C52.82 128.68 52.44 129.13 51.93 129.48C51.41 129.83 50.76 130.03 49.97 130.07V130.1Z" fill="#FF0011"/>
<path d="M53.49 121.69L53.37 118.85L58.64 118.64L58.76 121.48L53.49 121.69ZM57.83 129.72C56.9 129.76 56.16 129.44 55.62 128.78C55.07 128.11 54.77 127.09 54.72 125.7L54.34 116.39L56.89 116.29L57.27 125.54C57.29 125.95 57.37 126.26 57.52 126.47C57.67 126.68 57.86 126.78 58.09 126.77C58.38 126.76 58.64 126.63 58.85 126.4L59.6 129.01C59.38 129.25 59.11 129.42 58.81 129.53C58.51 129.64 58.18 129.71 57.84 129.72H57.83Z" fill="#FF0011"/>
<path d="M62.58 129.56C62.01 129.57 61.51 129.44 61.1 129.16C60.69 128.88 60.37 128.49 60.14 127.99C59.92 127.49 59.8 126.93 59.78 126.32C59.76 125.65 59.86 125.07 60.08 124.57C60.29 124.07 60.64 123.69 61.11 123.41C61.58 123.14 62.19 122.99 62.93 122.97L64.65 122.93L64.7 124.93L63.33 124.97C62.92 124.98 62.63 125.08 62.47 125.27C62.31 125.46 62.23 125.73 62.24 126.08C62.24 126.4 62.34 126.66 62.52 126.86C62.7 127.06 62.93 127.16 63.23 127.15C63.52 127.15 63.77 127.03 63.99 126.82C64.21 126.61 64.37 126.29 64.45 125.86L64.84 127.25C64.73 128 64.48 128.57 64.1 128.96C63.72 129.35 63.21 129.55 62.58 129.57V129.56ZM64.73 129.33L64.68 127.31L64.49 126.81L64.39 123.09C64.37 122.49 64.24 122.03 63.98 121.71C63.72 121.39 63.33 121.24 62.79 121.25C62.44 121.25 62.09 121.36 61.73 121.54C61.37 121.72 61.07 121.95 60.83 122.22L59.92 119.68C60.32 119.27 60.81 118.94 61.38 118.7C61.95 118.46 62.52 118.33 63.09 118.31C64.27 118.28 65.2 118.66 65.87 119.46C66.54 120.26 66.9 121.51 66.94 123.23L67.1 129.25L64.73 129.31V129.33Z" fill="#FF0011"/>
<path d="M72.64 129.17L72.61 115.17H77.05C78.08 115.16 78.99 115.44 79.78 116.02C80.57 116.6 81.19 117.4 81.63 118.44C82.08 119.48 82.3 120.72 82.3 122.16C82.3 123.59 82.08 124.82 81.64 125.87C81.2 126.92 80.58 127.73 79.8 128.3C79.01 128.88 78.11 129.16 77.08 129.17H72.64ZM75.29 126.01H76.94C77.49 126.01 77.96 125.85 78.36 125.54C78.76 125.23 79.07 124.79 79.29 124.21C79.51 123.63 79.62 122.95 79.62 122.16C79.62 121.35 79.51 120.66 79.28 120.09C79.06 119.52 78.74 119.09 78.35 118.78C77.96 118.47 77.48 118.32 76.93 118.32H75.28L75.3 126L75.29 126.01Z" fill="#FF0011"/>
<path d="M84.93 117.16C84.46 117.16 84.08 116.96 83.8 116.57C83.52 116.18 83.39 115.7 83.39 115.12C83.39 114.55 83.54 114.07 83.83 113.7C84.12 113.32 84.5 113.14 84.97 113.14C85.43 113.14 85.81 113.33 86.09 113.69C86.37 114.05 86.51 114.52 86.5 115.07C86.5 115.67 86.35 116.17 86.06 116.57C85.77 116.97 85.39 117.16 84.92 117.16H84.93ZM83.52 129.19L83.64 118.33L86.19 118.36L86.07 129.22L83.52 129.19Z" fill="#FF0011"/>
<path d="M91.7 129.32L92.05 115.32L94.71 115.39L94.36 129.39L91.7 129.32Z" fill="#FF0011"/>
<path d="M99.19 129.72C98.54 129.7 97.95 129.44 97.42 128.96C96.89 128.48 96.49 127.82 96.2 126.97C95.91 126.13 95.79 125.13 95.84 123.98C95.88 122.82 96.08 121.83 96.43 121.01C96.78 120.19 97.24 119.56 97.8 119.12C98.36 118.68 98.97 118.47 99.62 118.5C100.24 118.52 100.76 118.75 101.18 119.17C101.6 119.59 101.91 120.22 102.1 121.06C102.29 121.89 102.36 122.95 102.31 124.23C102.26 125.51 102.12 126.56 101.87 127.38C101.63 128.2 101.28 128.8 100.83 129.18C100.38 129.56 99.83 129.74 99.18 129.72H99.19ZM99.84 126.72C100.13 126.73 100.39 126.64 100.62 126.45C100.86 126.26 101.05 125.97 101.2 125.58C101.35 125.19 101.43 124.73 101.45 124.2C101.47 123.63 101.42 123.15 101.3 122.77C101.18 122.39 101.01 122.1 100.79 121.89C100.57 121.68 100.32 121.57 100.03 121.56C99.74 121.55 99.47 121.64 99.23 121.83C98.99 122.02 98.8 122.3 98.65 122.67C98.5 123.04 98.42 123.51 98.4 124.08C98.38 124.61 98.43 125.08 98.55 125.48C98.67 125.88 98.84 126.18 99.06 126.39C99.28 126.6 99.54 126.71 99.83 126.72H99.84ZM101.33 129.62L101.4 127.76L101.55 124.18V120.6L101.77 114.78L104.32 114.88L103.76 129.71L101.33 129.62Z" fill="#FF0011"/>
<path d="M105.33 129.8L105.89 118.96L108.44 119.09L107.88 129.94L105.33 129.81V129.8ZM107.23 117.84C106.76 117.82 106.39 117.6 106.13 117.2C105.87 116.8 105.75 116.31 105.78 115.74C105.81 115.17 105.98 114.7 106.28 114.33C106.58 113.96 106.97 113.79 107.44 113.82C107.9 113.84 108.27 114.04 108.54 114.42C108.81 114.8 108.93 115.26 108.9 115.82C108.87 116.42 108.7 116.91 108.4 117.3C108.1 117.69 107.71 117.87 107.24 117.84H107.23Z" fill="#FF0011"/>
<path d="M113.1 130.43C112.31 130.38 111.62 130.09 111.03 129.57C110.45 129.05 110.01 128.36 109.71 127.49C109.41 126.62 109.3 125.65 109.38 124.57C109.45 123.48 109.7 122.52 110.1 121.7C110.51 120.88 111.04 120.25 111.69 119.81C112.34 119.37 113.06 119.18 113.85 119.23C114.64 119.28 115.34 119.57 115.92 120.09C116.51 120.61 116.95 121.31 117.25 122.17C117.54 123.04 117.66 124.02 117.58 125.11C117.51 126.19 117.27 127.14 116.86 127.96C116.45 128.78 115.92 129.41 115.27 129.85C114.62 130.29 113.89 130.48 113.1 130.43ZM113.31 127.42C113.6 127.44 113.86 127.36 114.1 127.17C114.34 126.99 114.54 126.7 114.71 126.32C114.88 125.94 114.98 125.47 115.01 124.93C115.05 124.37 115.01 123.9 114.9 123.52C114.79 123.14 114.62 122.84 114.41 122.63C114.2 122.42 113.95 122.3 113.66 122.28C113.37 122.26 113.11 122.34 112.87 122.53C112.63 122.71 112.43 122.99 112.26 123.35C112.1 123.71 112 124.17 111.96 124.73C111.92 125.28 111.96 125.75 112.07 126.15C112.18 126.55 112.34 126.86 112.56 127.07C112.77 127.28 113.02 127.4 113.31 127.42Z" fill="#FF0011"/>
<path d="M118.24 122.58L118.49 119.75L123.74 120.22L123.49 123.05L118.24 122.58ZM121.51 131.1C120.58 131.02 119.89 130.61 119.44 129.88C118.99 129.15 118.82 128.09 118.94 126.71L119.77 117.43L122.31 117.66L121.48 126.88C121.44 127.29 121.48 127.61 121.6 127.84C121.72 128.07 121.89 128.19 122.13 128.21C122.42 128.24 122.69 128.15 122.94 127.94L123.35 130.63C123.1 130.84 122.81 130.97 122.5 131.05C122.18 131.12 121.86 131.14 121.52 131.11L121.51 131.1Z" fill="#FF0011"/>
<path d="M126.19 131.58C125.62 131.51 125.15 131.31 124.78 130.97C124.41 130.63 124.15 130.2 124 129.67C123.85 129.14 123.81 128.57 123.88 127.96C123.96 127.3 124.14 126.74 124.42 126.27C124.7 125.81 125.1 125.47 125.6 125.27C126.1 125.07 126.73 125.01 127.46 125.1L129.17 125.3L128.94 127.29L127.58 127.13C127.17 127.08 126.87 127.14 126.69 127.31C126.5 127.48 126.39 127.73 126.35 128.07C126.31 128.39 126.37 128.66 126.51 128.88C126.65 129.11 126.87 129.24 127.17 129.27C127.45 129.3 127.72 129.23 127.97 129.05C128.22 128.87 128.42 128.58 128.57 128.16L128.75 129.59C128.53 130.32 128.2 130.84 127.77 131.18C127.34 131.52 126.81 131.64 126.18 131.57L126.19 131.58ZM128.35 131.65L128.59 129.64L128.47 129.12L128.91 125.43C128.98 124.83 128.91 124.36 128.71 124.01C128.5 123.66 128.13 123.45 127.6 123.39C127.25 123.35 126.89 123.39 126.51 123.52C126.13 123.65 125.8 123.83 125.52 124.07L124.98 121.43C125.44 121.08 125.96 120.83 126.56 120.67C127.16 120.51 127.74 120.47 128.31 120.53C129.48 120.67 130.34 121.18 130.89 122.06C131.44 122.94 131.61 124.24 131.41 125.95L130.71 131.93L128.35 131.65Z" fill="#FF0011"/>
<path d="M97.5 43.06C94.89 41.91 92.11 41.85 90.63 41.92C90.19 41.94 89.88 42.56 89.77 42.98C89.45 44.13 90.49 46.91 93.22 52.04C95.78 56.86 99.43 59.34 103.59 61.38C103.59 61.38 121 66.69 105.34 90.6L95.84 99.71L59.79 101.53L54.9 90.6C53.14 89.23 51.75 87.11 50.75 85.18C49.23 82.25 47.42 77.93 48.11 71.87C48.6 68.4 50.41 65.93 52.96 65.25C52.96 65.25 63.76 61.88 66.95 45.03C68.79 30.95 85.21 20.01 94.01 29.07C97.2 32.36 98.91 37.99 99.31 41.26" fill="#0000D5"/>
<path d="M43.11 102.77L29.2 91.94L22.11 86.56L34.94 113.64C46.81 109.43 116.39 109.84 127.11 113.64L137.68 88.6L132.85 91.93L118.94 102.76L116.52 91.09L109.53 99.73L104.59 80.77L93.57 95L80.78 78.79L66.99 95L57.44 80.77L52.5 99.73L45.92 91.83L43.09 102.76L43.11 102.77Z" fill="#F7E418"/>
<path d="M145.77 74.67C144.04 75.73 142.88 77.64 142.88 79.81C142.88 83.15 145.59 85.85 148.92 85.85C152.25 85.85 154.96 83.14 154.96 79.81C154.96 76.48 152.25 73.77 148.92 73.77C148.61 73.77 148.32 73.8 148.02 73.84L145.76 74.66L145.77 74.67Z" fill="#F7E418"/>
<path d="M99.31 41.28C100.25 40.68 101.36 40.33 102.56 40.33C105.9 40.33 108.6 43.04 108.6 46.37C108.6 49.7 105.89 52.41 102.56 52.41C99.23 52.41 96.52 49.7 96.52 46.37C96.52 45.15 96.89 44.01 97.51 43.06L99.32 41.28H99.31Z" fill="#F7E418"/>
<path d="M16.6 54.3C15.66 52.17 13.54 50.69 11.07 50.69C7.73 50.69 5.03 53.4 5.03 56.73C5.03 60.06 7.74 62.77 11.07 62.77C14.4 62.77 16.85 60.32 17.09 57.2" fill="#F7E418"/>
</svg>
