<svg width="21" height="24" viewBox="0 0 21 24" fill="none" xmlns="http://www.w3.org/2000/svg">
<path d="M3.5 18C3.25209 18 3.04442 17.904 2.877 17.712C2.70959 17.52 2.62559 17.2827 2.625 17C2.62442 16.7173 2.70842 16.48 2.877 16.288C3.04559 16.096 3.25325 16 3.5 16H17.5C17.7479 16 17.9559 16.096 18.1239 16.288C18.2919 16.48 18.3756 16.7173 18.375 17C18.3744 17.2827 18.2904 17.5203 18.123 17.713C17.9556 17.9057 17.7479 18.0013 17.5 18H3.5ZM3.5 13C3.25209 13 3.04442 12.904 2.877 12.712C2.70959 12.52 2.62559 12.2827 2.625 12C2.62442 11.7173 2.70842 11.48 2.877 11.288C3.04559 11.096 3.25325 11 3.5 11H17.5C17.7479 11 17.9559 11.096 18.1239 11.288C18.2919 11.48 18.3756 11.7173 18.375 12C18.3744 12.2827 18.2904 12.5203 18.123 12.713C17.9556 12.9057 17.7479 13.0013 17.5 13H3.5ZM3.5 8C3.25209 8 3.04442 7.904 2.877 7.712C2.70959 7.52 2.62559 7.28267 2.625 7C2.62442 6.71734 2.70842 6.48 2.877 6.288C3.04559 6.096 3.25325 6 3.5 6H17.5C17.7479 6 17.9559 6.096 18.1239 6.288C18.2919 6.48 18.3756 6.71734 18.375 7C18.3744 7.28267 18.2904 7.52034 18.123 7.713C17.9556 7.90567 17.7479 8.00134 17.5 8H3.5Z" fill="#FFFFFF"/>
</svg>
