<svg width="24" height="24" viewBox="0 0 24 24" fill="none" xmlns="http://www.w3.org/2000/svg">
<path d="M6.5 15.65C7.28334 15.65 8.046 15.7357 8.788 15.9072C9.53 16.0787 10.2673 16.3353 11 16.677V7.04248C10.3167 6.65123 9.59167 6.35779 8.825 6.16216C8.05834 5.96654 7.28334 5.86873 6.5 5.86873C5.9 5.86873 5.304 5.92578 4.712 6.0399C4.12 6.15401 3.54933 6.32518 3 6.55341V16.2369C3.58333 16.0412 4.16267 15.8945 4.738 15.7967C5.31333 15.6989 5.90067 15.65 6.5 15.65ZM13 16.677C13.7333 16.3347 14.471 16.0781 15.213 15.9072C15.955 15.7364 16.7173 15.6506 17.5 15.65C18.1 15.65 18.6877 15.6989 19.263 15.7967C19.8383 15.8945 20.4173 16.0412 21 16.2369V6.55341C20.45 6.32518 19.879 6.15401 19.287 6.0399C18.695 5.92578 18.0993 5.86873 17.5 5.86873C16.7167 5.86873 15.9417 5.96654 15.175 6.16216C14.4083 6.35779 13.6833 6.65123 13 7.04248V16.677ZM12 19.049C11.7667 19.049 11.5457 19.0206 11.337 18.9639C11.1283 18.9071 10.9327 18.8295 10.75 18.7311C10.1 18.3561 9.41667 18.0751 8.7 17.8879C7.98334 17.7008 7.25 17.6069 6.5 17.6062C5.8 17.6062 5.11267 17.6959 4.438 17.8752C3.76333 18.0545 3.11733 18.3072 2.5 18.6333C2.15 18.8126 1.81267 18.8044 1.488 18.6088C1.16333 18.4132 1.00067 18.1279 1 17.753V5.96654C1 5.78722 1.046 5.61604 1.138 5.45302C1.23 5.29 1.36733 5.16774 1.55 5.08623C2.31667 4.69498 3.11667 4.40154 3.95 4.20591C4.78333 4.01029 5.63334 3.91248 6.5 3.91248C7.46667 3.91248 8.41267 4.03474 9.338 4.27927C10.2633 4.5238 11.1507 4.8906 12 5.37966C12.85 4.8906 13.7377 4.5238 14.663 4.27927C15.5883 4.03474 16.534 3.91248 17.5 3.91248C18.3667 3.91248 19.2167 4.01029 20.05 4.20591C20.8833 4.40154 21.6833 4.69498 22.45 5.08623C22.6333 5.16774 22.771 5.29 22.863 5.45302C22.955 5.61604 23.0007 5.78722 23 5.96654V17.753C23 18.1279 22.8377 18.4132 22.513 18.6088C22.1883 18.8044 21.8507 18.8126 21.5 18.6333C20.8833 18.3072 20.2377 18.0545 19.563 17.8752C18.8883 17.6959 18.2007 17.6062 17.5 17.6062C16.75 17.6062 16.0167 17.7001 15.3 17.8879C14.5833 18.0757 13.9 18.3568 13.25 18.7311C13.0667 18.8289 12.871 18.9065 12.663 18.9639C12.455 19.0213 12.234 19.0496 12 19.049ZM14 8.58302C14 8.43631 14.0543 8.28567 14.163 8.13113C14.2717 7.97659 14.3923 7.87454 14.525 7.82498C15.0083 7.66196 15.4917 7.53969 15.975 7.45818C16.4583 7.37667 16.9667 7.33591 17.5 7.33591C17.8333 7.33591 18.1627 7.35646 18.488 7.39754C18.8133 7.43862 19.134 7.49144 19.45 7.55599C19.6 7.5886 19.7293 7.67011 19.838 7.80052C19.9467 7.93094 20.0007 8.07766 20 8.24068C20 8.51782 19.9083 8.72159 19.725 8.85201C19.5417 8.98243 19.3083 9.01503 19.025 8.94982C18.7917 8.90092 18.546 8.8644 18.288 8.84027C18.03 8.81614 17.7673 8.80375 17.5 8.8031C17.0667 8.8031 16.6417 8.84386 16.225 8.92537C15.8083 9.00688 15.4083 9.11284 15.025 9.24326C14.725 9.35737 14.4793 9.34922 14.288 9.21881C14.0967 9.08839 14.0007 8.87646 14 8.58302ZM14 13.9627C14 13.816 14.0543 13.6654 14.163 13.5108C14.2717 13.3563 14.3923 13.2542 14.525 13.2047C15.0083 13.0416 15.4917 12.9194 15.975 12.8379C16.4583 12.7564 16.9667 12.7156 17.5 12.7156C17.8333 12.7156 18.1627 12.7361 18.488 12.7772C18.8133 12.8183 19.134 12.8711 19.45 12.9357C19.6 12.9683 19.7293 13.0498 19.838 13.1802C19.9467 13.3106 20.0007 13.4573 20 13.6204C20 13.8975 19.9083 14.1013 19.725 14.2317C19.5417 14.3621 19.3083 14.3947 19.025 14.3295C18.7917 14.2806 18.546 14.2441 18.288 14.22C18.03 14.1958 17.7673 14.1834 17.5 14.1828C17.0667 14.1828 16.6417 14.2196 16.225 14.2933C15.8083 14.367 15.4083 14.4687 15.025 14.5985C14.725 14.7126 14.4793 14.7087 14.288 14.5868C14.0967 14.4648 14.0007 14.2568 14 13.9627ZM14 11.2729C14 11.1262 14.0543 10.9755 14.163 10.821C14.2717 10.6664 14.3923 10.5644 14.525 10.5148C15.0083 10.3518 15.4917 10.2295 15.975 10.148C16.4583 10.0665 16.9667 10.0258 17.5 10.0258C17.8333 10.0258 18.1627 10.0463 18.488 10.0874C18.8133 10.1285 19.134 10.1813 19.45 10.2458C19.6 10.2784 19.7293 10.36 19.838 10.4904C19.9467 10.6208 20.0007 10.7675 20 10.9305C20 11.2077 19.9083 11.4114 19.725 11.5419C19.5417 11.6723 19.3083 11.7049 19.025 11.6397C18.7917 11.5908 18.546 11.5542 18.288 11.5301C18.03 11.506 17.7673 11.4936 17.5 11.4929C17.0667 11.4929 16.6417 11.5337 16.225 11.6152C15.8083 11.6967 15.4083 11.8027 15.025 11.9331C14.725 12.0472 14.4793 12.0391 14.288 11.9087C14.0967 11.7782 14.0007 11.5663 14 11.2729Z" fill="#898989"/>
</svg>
